<mxfile host="Electron" modified="2025-09-04T13:01:21.752Z" agent="Mozilla/5.0 (X11; Linux x86_64) AppleWebKit/537.36 (KHTML, like Gecko) draw.io/21.6.5 Chrome/114.0.5735.243 Electron/25.3.1 Safari/537.36" etag="77dDY2KTLVXzEdXCgI3C" version="21.6.5" type="device">
  <diagram name="Page-1" id="j7i9J7UvplM0Ce2k_gIZ">
    <mxGraphModel dx="918" dy="537" grid="1" gridSize="10" guides="1" tooltips="1" connect="1" arrows="1" fold="1" page="1" pageScale="1" pageWidth="827" pageHeight="1169" math="0" shadow="0">
      <root>
        <mxCell id="0" />
        <mxCell id="1" parent="0" />
        <mxCell id="iAt2AsufF3LarDBHJFdH-1" value="x&lt;br&gt;" style="rounded=0;whiteSpace=wrap;html=1;fontSize=24;fillColor=#dae8fc;strokeColor=#6c8ebf;verticalAlign=middle;" vertex="1" parent="1">
          <mxGeometry x="280" y="400" width="40" height="80" as="geometry" />
        </mxCell>
        <mxCell id="iAt2AsufF3LarDBHJFdH-3" value="" style="endArrow=none;html=1;rounded=0;entryX=0;entryY=0.25;entryDx=0;entryDy=0;" edge="1" parent="1">
          <mxGeometry width="50" height="50" relative="1" as="geometry">
            <mxPoint x="260" y="420" as="sourcePoint" />
            <mxPoint x="280" y="420" as="targetPoint" />
          </mxGeometry>
        </mxCell>
        <mxCell id="iAt2AsufF3LarDBHJFdH-4" value="" style="endArrow=none;html=1;rounded=0;entryX=0;entryY=0.25;entryDx=0;entryDy=0;fillColor=#f5f5f5;strokeColor=#666666;" edge="1" parent="1">
          <mxGeometry width="50" height="50" relative="1" as="geometry">
            <mxPoint x="320" y="439.94" as="sourcePoint" />
            <mxPoint x="340" y="439.94" as="targetPoint" />
          </mxGeometry>
        </mxCell>
        <mxCell id="iAt2AsufF3LarDBHJFdH-8" value="" style="triangle;whiteSpace=wrap;html=1;rotation=-90;fillColor=#dae8fc;strokeColor=#6c8ebf;" vertex="1" parent="1">
          <mxGeometry x="295" y="465" width="10" height="20" as="geometry" />
        </mxCell>
        <mxCell id="iAt2AsufF3LarDBHJFdH-9" value="" style="endArrow=none;html=1;rounded=0;entryX=0;entryY=0.25;entryDx=0;entryDy=0;fillColor=#f5f5f5;strokeColor=#666666;" edge="1" parent="1">
          <mxGeometry width="50" height="50" relative="1" as="geometry">
            <mxPoint x="220" y="590" as="sourcePoint" />
            <mxPoint x="280" y="460" as="targetPoint" />
            <Array as="points">
              <mxPoint x="220" y="460" />
            </Array>
          </mxGeometry>
        </mxCell>
        <mxCell id="iAt2AsufF3LarDBHJFdH-11" value="" style="endArrow=none;html=1;rounded=0;entryX=0;entryY=0.25;entryDx=0;entryDy=0;" edge="1" parent="1">
          <mxGeometry width="50" height="50" relative="1" as="geometry">
            <mxPoint x="130" y="440" as="sourcePoint" />
            <mxPoint x="280" y="439.94" as="targetPoint" />
          </mxGeometry>
        </mxCell>
        <mxCell id="iAt2AsufF3LarDBHJFdH-12" value="rst" style="text;html=1;strokeColor=none;fillColor=none;align=right;verticalAlign=middle;whiteSpace=wrap;rounded=0;fontSize=8;" vertex="1" parent="1">
          <mxGeometry x="260" y="445" width="20" height="15" as="geometry" />
        </mxCell>
        <mxCell id="iAt2AsufF3LarDBHJFdH-14" value="dout" style="text;html=1;strokeColor=none;fillColor=none;align=left;verticalAlign=middle;whiteSpace=wrap;rounded=0;fontSize=8;" vertex="1" parent="1">
          <mxGeometry x="320" y="425" width="30" height="15" as="geometry" />
        </mxCell>
        <mxCell id="iAt2AsufF3LarDBHJFdH-15" value="ena" style="text;html=1;strokeColor=none;fillColor=none;align=right;verticalAlign=middle;whiteSpace=wrap;rounded=0;fontSize=8;" vertex="1" parent="1">
          <mxGeometry x="260" y="425" width="20" height="15" as="geometry" />
        </mxCell>
        <mxCell id="iAt2AsufF3LarDBHJFdH-16" value="din" style="text;html=1;strokeColor=none;fillColor=none;align=right;verticalAlign=middle;whiteSpace=wrap;rounded=0;fontSize=8;" vertex="1" parent="1">
          <mxGeometry x="260" y="405" width="20" height="15" as="geometry" />
        </mxCell>
        <mxCell id="iAt2AsufF3LarDBHJFdH-17" value="+1&lt;br style=&quot;font-size: 15px;&quot;&gt;%W" style="rounded=0;whiteSpace=wrap;html=1;fontSize=15;fillColor=#fff2cc;strokeColor=#d6b656;" vertex="1" parent="1">
          <mxGeometry x="360" y="400" width="40" height="80" as="geometry" />
        </mxCell>
        <mxCell id="iAt2AsufF3LarDBHJFdH-18" value="" style="endArrow=none;html=1;rounded=0;entryX=0;entryY=0.25;entryDx=0;entryDy=0;fillColor=#f5f5f5;strokeColor=#666666;" edge="1" parent="1">
          <mxGeometry width="50" height="50" relative="1" as="geometry">
            <mxPoint x="440" y="360" as="sourcePoint" />
            <mxPoint x="360" y="440" as="targetPoint" />
            <Array as="points">
              <mxPoint x="340" y="360" />
              <mxPoint x="340" y="440" />
            </Array>
          </mxGeometry>
        </mxCell>
        <mxCell id="iAt2AsufF3LarDBHJFdH-20" value="" style="endArrow=none;html=1;rounded=0;entryX=0;entryY=1;entryDx=0;entryDy=0;exitX=1;exitY=0.25;exitDx=0;exitDy=0;" edge="1" parent="1" source="iAt2AsufF3LarDBHJFdH-17" target="iAt2AsufF3LarDBHJFdH-16">
          <mxGeometry width="50" height="50" relative="1" as="geometry">
            <mxPoint x="400" y="440" as="sourcePoint" />
            <mxPoint x="420" y="440" as="targetPoint" />
            <Array as="points">
              <mxPoint x="420" y="420" />
              <mxPoint x="420" y="380" />
              <mxPoint x="260" y="380" />
            </Array>
          </mxGeometry>
        </mxCell>
        <mxCell id="iAt2AsufF3LarDBHJFdH-24" value="nxt" style="text;html=1;strokeColor=none;fillColor=none;align=left;verticalAlign=middle;whiteSpace=wrap;rounded=0;fontSize=8;" vertex="1" parent="1">
          <mxGeometry x="400" y="405" width="30" height="15" as="geometry" />
        </mxCell>
        <mxCell id="iAt2AsufF3LarDBHJFdH-25" value="last" style="text;html=1;strokeColor=none;fillColor=none;align=left;verticalAlign=middle;whiteSpace=wrap;rounded=0;fontSize=8;" vertex="1" parent="1">
          <mxGeometry x="400" y="445" width="30" height="15" as="geometry" />
        </mxCell>
        <mxCell id="iAt2AsufF3LarDBHJFdH-26" value="y" style="rounded=0;whiteSpace=wrap;html=1;fontSize=24;fillColor=#dae8fc;strokeColor=#6c8ebf;verticalAlign=middle;" vertex="1" parent="1">
          <mxGeometry x="280" y="530" width="40" height="80" as="geometry" />
        </mxCell>
        <mxCell id="iAt2AsufF3LarDBHJFdH-27" value="" style="endArrow=none;html=1;rounded=0;entryX=0;entryY=0.25;entryDx=0;entryDy=0;" edge="1" parent="1">
          <mxGeometry width="50" height="50" relative="1" as="geometry">
            <mxPoint x="260" y="550" as="sourcePoint" />
            <mxPoint x="280" y="550" as="targetPoint" />
          </mxGeometry>
        </mxCell>
        <mxCell id="iAt2AsufF3LarDBHJFdH-28" value="" style="endArrow=none;html=1;rounded=0;fillColor=#f5f5f5;strokeColor=#666666;" edge="1" parent="1">
          <mxGeometry width="50" height="50" relative="1" as="geometry">
            <mxPoint x="320" y="569.94" as="sourcePoint" />
            <mxPoint x="430" y="650" as="targetPoint" />
            <Array as="points">
              <mxPoint x="340" y="570" />
              <mxPoint x="340" y="650" />
            </Array>
          </mxGeometry>
        </mxCell>
        <mxCell id="iAt2AsufF3LarDBHJFdH-29" value="" style="triangle;whiteSpace=wrap;html=1;rotation=-90;fillColor=#dae8fc;strokeColor=#6c8ebf;" vertex="1" parent="1">
          <mxGeometry x="295" y="595" width="10" height="20" as="geometry" />
        </mxCell>
        <mxCell id="iAt2AsufF3LarDBHJFdH-30" value="" style="endArrow=none;html=1;rounded=0;entryX=0;entryY=0.25;entryDx=0;entryDy=0;fillColor=#f5f5f5;strokeColor=#666666;" edge="1" parent="1">
          <mxGeometry width="50" height="50" relative="1" as="geometry">
            <mxPoint x="260" y="590" as="sourcePoint" />
            <mxPoint x="280" y="590" as="targetPoint" />
          </mxGeometry>
        </mxCell>
        <mxCell id="iAt2AsufF3LarDBHJFdH-31" value="" style="endArrow=none;html=1;rounded=0;entryX=0;entryY=0.25;entryDx=0;entryDy=0;exitX=1;exitY=0.5;exitDx=0;exitDy=0;exitPerimeter=0;" edge="1" parent="1" source="iAt2AsufF3LarDBHJFdH-40">
          <mxGeometry width="50" height="50" relative="1" as="geometry">
            <mxPoint x="260" y="569.94" as="sourcePoint" />
            <mxPoint x="280" y="569.94" as="targetPoint" />
          </mxGeometry>
        </mxCell>
        <mxCell id="iAt2AsufF3LarDBHJFdH-32" value="rst" style="text;html=1;strokeColor=none;fillColor=none;align=right;verticalAlign=middle;whiteSpace=wrap;rounded=0;fontSize=8;" vertex="1" parent="1">
          <mxGeometry x="260" y="575" width="20" height="15" as="geometry" />
        </mxCell>
        <mxCell id="iAt2AsufF3LarDBHJFdH-33" value="dout" style="text;html=1;strokeColor=none;fillColor=none;align=left;verticalAlign=middle;whiteSpace=wrap;rounded=0;fontSize=8;" vertex="1" parent="1">
          <mxGeometry x="320" y="555" width="30" height="15" as="geometry" />
        </mxCell>
        <mxCell id="iAt2AsufF3LarDBHJFdH-34" value="ena" style="text;html=1;strokeColor=none;fillColor=none;align=right;verticalAlign=middle;whiteSpace=wrap;rounded=0;fontSize=8;" vertex="1" parent="1">
          <mxGeometry x="260" y="555" width="20" height="15" as="geometry" />
        </mxCell>
        <mxCell id="iAt2AsufF3LarDBHJFdH-35" value="din" style="text;html=1;strokeColor=none;fillColor=none;align=right;verticalAlign=middle;whiteSpace=wrap;rounded=0;fontSize=8;" vertex="1" parent="1">
          <mxGeometry x="260" y="535" width="20" height="15" as="geometry" />
        </mxCell>
        <mxCell id="iAt2AsufF3LarDBHJFdH-36" value="+1&lt;br style=&quot;font-size: 15px;&quot;&gt;%H" style="rounded=0;whiteSpace=wrap;html=1;fontSize=15;fillColor=#fff2cc;strokeColor=#d6b656;" vertex="1" parent="1">
          <mxGeometry x="360" y="530" width="40" height="80" as="geometry" />
        </mxCell>
        <mxCell id="iAt2AsufF3LarDBHJFdH-37" value="" style="endArrow=none;html=1;rounded=0;entryX=0;entryY=1;entryDx=0;entryDy=0;exitX=1;exitY=0.25;exitDx=0;exitDy=0;" edge="1" parent="1" source="iAt2AsufF3LarDBHJFdH-36" target="iAt2AsufF3LarDBHJFdH-35">
          <mxGeometry width="50" height="50" relative="1" as="geometry">
            <mxPoint x="400" y="570" as="sourcePoint" />
            <mxPoint x="420" y="570" as="targetPoint" />
            <Array as="points">
              <mxPoint x="420" y="550" />
              <mxPoint x="420" y="510" />
              <mxPoint x="260" y="510" />
            </Array>
          </mxGeometry>
        </mxCell>
        <mxCell id="iAt2AsufF3LarDBHJFdH-38" value="nxt" style="text;html=1;strokeColor=none;fillColor=none;align=left;verticalAlign=middle;whiteSpace=wrap;rounded=0;fontSize=8;" vertex="1" parent="1">
          <mxGeometry x="400" y="535" width="30" height="15" as="geometry" />
        </mxCell>
        <mxCell id="iAt2AsufF3LarDBHJFdH-39" value="last" style="text;html=1;strokeColor=none;fillColor=none;align=left;verticalAlign=middle;whiteSpace=wrap;rounded=0;fontSize=8;" vertex="1" parent="1">
          <mxGeometry x="400" y="575" width="30" height="15" as="geometry" />
        </mxCell>
        <mxCell id="iAt2AsufF3LarDBHJFdH-40" value="" style="shape=or;whiteSpace=wrap;html=1;fillColor=#fff2cc;strokeColor=#d6b656;" vertex="1" parent="1">
          <mxGeometry x="190" y="550" width="20" height="40" as="geometry" />
        </mxCell>
        <mxCell id="iAt2AsufF3LarDBHJFdH-41" value="" style="endArrow=none;html=1;rounded=0;exitX=0;exitY=0.75;exitDx=0;exitDy=0;exitPerimeter=0;" edge="1" parent="1" source="iAt2AsufF3LarDBHJFdH-40">
          <mxGeometry width="50" height="50" relative="1" as="geometry">
            <mxPoint x="500" y="520" as="sourcePoint" />
            <mxPoint x="160" y="440" as="targetPoint" />
            <Array as="points">
              <mxPoint x="160" y="580" />
            </Array>
          </mxGeometry>
        </mxCell>
        <mxCell id="iAt2AsufF3LarDBHJFdH-42" value="" style="endArrow=none;html=1;rounded=0;exitX=0;exitY=0.25;exitDx=0;exitDy=0;exitPerimeter=0;entryX=1;entryY=0.75;entryDx=0;entryDy=0;" edge="1" parent="1" source="iAt2AsufF3LarDBHJFdH-40" target="iAt2AsufF3LarDBHJFdH-17">
          <mxGeometry width="50" height="50" relative="1" as="geometry">
            <mxPoint x="380" y="540" as="sourcePoint" />
            <mxPoint x="430" y="490" as="targetPoint" />
            <Array as="points">
              <mxPoint x="180" y="560" />
              <mxPoint x="180" y="500" />
              <mxPoint x="420" y="500" />
              <mxPoint x="420" y="460" />
            </Array>
          </mxGeometry>
        </mxCell>
        <mxCell id="iAt2AsufF3LarDBHJFdH-43" value="" style="endArrow=none;html=1;rounded=0;entryX=0;entryY=0.25;entryDx=0;entryDy=0;fillColor=#f5f5f5;strokeColor=#666666;" edge="1" parent="1">
          <mxGeometry width="50" height="50" relative="1" as="geometry">
            <mxPoint x="340" y="569.94" as="sourcePoint" />
            <mxPoint x="360" y="569.94" as="targetPoint" />
          </mxGeometry>
        </mxCell>
        <mxCell id="iAt2AsufF3LarDBHJFdH-44" value="" style="endArrow=none;html=1;rounded=0;exitX=0;exitY=0.25;exitDx=0;exitDy=0;exitPerimeter=0;entryX=1;entryY=0.75;entryDx=0;entryDy=0;" edge="1" parent="1" source="iAt2AsufF3LarDBHJFdH-51">
          <mxGeometry width="50" height="50" relative="1" as="geometry">
            <mxPoint x="200" y="690" as="sourcePoint" />
            <mxPoint x="400" y="590" as="targetPoint" />
            <Array as="points">
              <mxPoint x="260" y="630" />
              <mxPoint x="420" y="630" />
              <mxPoint x="420" y="590" />
            </Array>
          </mxGeometry>
        </mxCell>
        <mxCell id="iAt2AsufF3LarDBHJFdH-45" value="may&lt;br&gt;next" style="rounded=0;whiteSpace=wrap;html=1;fontSize=15;fillColor=#dae8fc;strokeColor=#6c8ebf;verticalAlign=middle;" vertex="1" parent="1">
          <mxGeometry x="280" y="660" width="40" height="80" as="geometry" />
        </mxCell>
        <mxCell id="iAt2AsufF3LarDBHJFdH-46" value="" style="triangle;whiteSpace=wrap;html=1;rotation=-90;fillColor=#dae8fc;strokeColor=#6c8ebf;" vertex="1" parent="1">
          <mxGeometry x="295" y="725" width="10" height="20" as="geometry" />
        </mxCell>
        <mxCell id="iAt2AsufF3LarDBHJFdH-47" value="" style="endArrow=none;html=1;rounded=0;entryX=0;entryY=0.25;entryDx=0;entryDy=0;exitX=1;exitY=0.5;exitDx=0;exitDy=0;exitPerimeter=0;" edge="1" parent="1" source="iAt2AsufF3LarDBHJFdH-51">
          <mxGeometry width="50" height="50" relative="1" as="geometry">
            <mxPoint x="260" y="680" as="sourcePoint" />
            <mxPoint x="280" y="680" as="targetPoint" />
            <Array as="points">
              <mxPoint x="250" y="680" />
            </Array>
          </mxGeometry>
        </mxCell>
        <mxCell id="iAt2AsufF3LarDBHJFdH-48" value="" style="endArrow=none;html=1;rounded=0;entryX=0;entryY=0.25;entryDx=0;entryDy=0;exitX=1;exitY=0.5;exitDx=0;exitDy=0;fillColor=#f5f5f5;strokeColor=#666666;" edge="1" parent="1" source="iAt2AsufF3LarDBHJFdH-92">
          <mxGeometry width="50" height="50" relative="1" as="geometry">
            <mxPoint x="260" y="720" as="sourcePoint" />
            <mxPoint x="280" y="720" as="targetPoint" />
          </mxGeometry>
        </mxCell>
        <mxCell id="iAt2AsufF3LarDBHJFdH-49" value="set" style="text;html=1;strokeColor=none;fillColor=none;align=right;verticalAlign=middle;whiteSpace=wrap;rounded=0;fontSize=8;" vertex="1" parent="1">
          <mxGeometry x="260" y="705" width="20" height="15" as="geometry" />
        </mxCell>
        <mxCell id="iAt2AsufF3LarDBHJFdH-50" value="rst" style="text;html=1;strokeColor=none;fillColor=none;align=right;verticalAlign=middle;whiteSpace=wrap;rounded=0;fontSize=8;" vertex="1" parent="1">
          <mxGeometry x="260" y="665" width="20" height="15" as="geometry" />
        </mxCell>
        <mxCell id="iAt2AsufF3LarDBHJFdH-51" value="" style="shape=or;whiteSpace=wrap;html=1;fillColor=#fff2cc;strokeColor=#d6b656;rotation=90;" vertex="1" parent="1">
          <mxGeometry x="240" y="630" width="20" height="40" as="geometry" />
        </mxCell>
        <mxCell id="iAt2AsufF3LarDBHJFdH-56" value="" style="endArrow=none;html=1;rounded=0;exitX=0;exitY=0.75;exitDx=0;exitDy=0;exitPerimeter=0;" edge="1" parent="1" source="iAt2AsufF3LarDBHJFdH-51">
          <mxGeometry width="50" height="50" relative="1" as="geometry">
            <mxPoint x="320" y="610" as="sourcePoint" />
            <mxPoint x="240" y="570" as="targetPoint" />
          </mxGeometry>
        </mxCell>
        <mxCell id="iAt2AsufF3LarDBHJFdH-57" value="" style="group" vertex="1" connectable="0" parent="1">
          <mxGeometry x="440" y="350" width="50" height="20" as="geometry" />
        </mxCell>
        <mxCell id="iAt2AsufF3LarDBHJFdH-58" value="" style="triangle;whiteSpace=wrap;html=1;strokeColor=none;container=0;fillColor=#dae8fc;" vertex="1" parent="iAt2AsufF3LarDBHJFdH-57">
          <mxGeometry x="40" width="10" height="20" as="geometry" />
        </mxCell>
        <mxCell id="iAt2AsufF3LarDBHJFdH-59" value="x" style="rounded=0;whiteSpace=wrap;html=1;strokeColor=none;container=0;fillColor=#dae8fc;glass=0;" vertex="1" parent="iAt2AsufF3LarDBHJFdH-57">
          <mxGeometry width="40" height="20" as="geometry" />
        </mxCell>
        <mxCell id="iAt2AsufF3LarDBHJFdH-60" value="" style="endArrow=none;html=1;rounded=0;fillColor=#dae8fc;strokeColor=#6c8ebf;" edge="1" parent="iAt2AsufF3LarDBHJFdH-57">
          <mxGeometry width="50" height="50" relative="1" as="geometry">
            <mxPoint x="10" y="20" as="sourcePoint" />
            <mxPoint x="10" y="20" as="targetPoint" />
            <Array as="points">
              <mxPoint x="40" y="20" />
              <mxPoint x="50" y="10" />
              <mxPoint x="40" />
              <mxPoint />
              <mxPoint y="20" />
            </Array>
          </mxGeometry>
        </mxCell>
        <mxCell id="iAt2AsufF3LarDBHJFdH-61" value="" style="group" vertex="1" connectable="0" parent="1">
          <mxGeometry x="80" y="430" width="50" height="20" as="geometry" />
        </mxCell>
        <mxCell id="iAt2AsufF3LarDBHJFdH-62" value="" style="triangle;whiteSpace=wrap;html=1;strokeColor=none;container=0;fillColor=#d5e8d4;" vertex="1" parent="iAt2AsufF3LarDBHJFdH-61">
          <mxGeometry x="40" width="10" height="20" as="geometry" />
        </mxCell>
        <mxCell id="iAt2AsufF3LarDBHJFdH-63" value="next" style="rounded=0;whiteSpace=wrap;html=1;strokeColor=none;container=0;fillColor=#d5e8d4;glass=0;" vertex="1" parent="iAt2AsufF3LarDBHJFdH-61">
          <mxGeometry width="40" height="20" as="geometry" />
        </mxCell>
        <mxCell id="iAt2AsufF3LarDBHJFdH-64" value="" style="endArrow=none;html=1;rounded=0;fillColor=#d5e8d4;strokeColor=#82b366;" edge="1" parent="iAt2AsufF3LarDBHJFdH-61">
          <mxGeometry width="50" height="50" relative="1" as="geometry">
            <mxPoint x="10" y="20" as="sourcePoint" />
            <mxPoint x="10" y="20" as="targetPoint" />
            <Array as="points">
              <mxPoint x="40" y="20" />
              <mxPoint x="50" y="10" />
              <mxPoint x="40" />
              <mxPoint />
              <mxPoint y="20" />
            </Array>
          </mxGeometry>
        </mxCell>
        <mxCell id="iAt2AsufF3LarDBHJFdH-75" value="" style="ellipse;whiteSpace=wrap;html=1;aspect=fixed;" vertex="1" parent="1">
          <mxGeometry x="358" y="717" width="6" height="6" as="geometry" />
        </mxCell>
        <mxCell id="iAt2AsufF3LarDBHJFdH-76" value="" style="endArrow=none;html=1;rounded=0;exitX=1;exitY=0.5;exitDx=0;exitDy=0;entryX=0;entryY=0.5;entryDx=0;entryDy=0;" edge="1" parent="1" source="iAt2AsufF3LarDBHJFdH-45">
          <mxGeometry width="50" height="50" relative="1" as="geometry">
            <mxPoint x="270" y="730" as="sourcePoint" />
            <mxPoint x="364" y="680" as="targetPoint" />
            <Array as="points">
              <mxPoint x="340" y="700" />
              <mxPoint x="340" y="680" />
            </Array>
          </mxGeometry>
        </mxCell>
        <mxCell id="iAt2AsufF3LarDBHJFdH-77" value="" style="endArrow=none;html=1;rounded=0;entryX=0;entryY=0.5;entryDx=0;entryDy=0;" edge="1" parent="1" target="iAt2AsufF3LarDBHJFdH-75">
          <mxGeometry width="50" height="50" relative="1" as="geometry">
            <mxPoint x="340" y="700" as="sourcePoint" />
            <mxPoint x="360" y="690" as="targetPoint" />
            <Array as="points">
              <mxPoint x="340" y="700" />
              <mxPoint x="340" y="720" />
            </Array>
          </mxGeometry>
        </mxCell>
        <mxCell id="iAt2AsufF3LarDBHJFdH-79" value="" style="group" vertex="1" connectable="0" parent="1">
          <mxGeometry x="364" y="710" width="50" height="20" as="geometry" />
        </mxCell>
        <mxCell id="iAt2AsufF3LarDBHJFdH-80" value="" style="triangle;whiteSpace=wrap;html=1;strokeColor=none;container=0;fillColor=#dae8fc;" vertex="1" parent="iAt2AsufF3LarDBHJFdH-79">
          <mxGeometry x="40" width="10" height="20" as="geometry" />
        </mxCell>
        <mxCell id="iAt2AsufF3LarDBHJFdH-81" value="&lt;font style=&quot;font-size: 8px;&quot;&gt;may start&lt;/font&gt;" style="rounded=0;whiteSpace=wrap;html=1;strokeColor=none;container=0;fillColor=#dae8fc;glass=0;" vertex="1" parent="iAt2AsufF3LarDBHJFdH-79">
          <mxGeometry width="40" height="20" as="geometry" />
        </mxCell>
        <mxCell id="iAt2AsufF3LarDBHJFdH-82" value="" style="endArrow=none;html=1;rounded=0;fillColor=#dae8fc;strokeColor=#6c8ebf;" edge="1" parent="iAt2AsufF3LarDBHJFdH-79">
          <mxGeometry width="50" height="50" relative="1" as="geometry">
            <mxPoint x="10" y="20" as="sourcePoint" />
            <mxPoint x="10" y="20" as="targetPoint" />
            <Array as="points">
              <mxPoint x="40" y="20" />
              <mxPoint x="50" y="10" />
              <mxPoint x="40" />
              <mxPoint />
              <mxPoint y="20" />
            </Array>
          </mxGeometry>
        </mxCell>
        <mxCell id="iAt2AsufF3LarDBHJFdH-83" value="" style="group" vertex="1" connectable="0" parent="1">
          <mxGeometry x="364" y="670" width="50" height="20" as="geometry" />
        </mxCell>
        <mxCell id="iAt2AsufF3LarDBHJFdH-84" value="" style="triangle;whiteSpace=wrap;html=1;strokeColor=none;container=0;fillColor=#dae8fc;" vertex="1" parent="iAt2AsufF3LarDBHJFdH-83">
          <mxGeometry x="40" width="10" height="20" as="geometry" />
        </mxCell>
        <mxCell id="iAt2AsufF3LarDBHJFdH-85" value="&lt;font style=&quot;font-size: 8px;&quot;&gt;may next&lt;/font&gt;" style="rounded=0;whiteSpace=wrap;html=1;strokeColor=none;container=0;fillColor=#dae8fc;glass=0;" vertex="1" parent="iAt2AsufF3LarDBHJFdH-83">
          <mxGeometry width="40" height="20" as="geometry" />
        </mxCell>
        <mxCell id="iAt2AsufF3LarDBHJFdH-86" value="" style="endArrow=none;html=1;rounded=0;fillColor=#dae8fc;strokeColor=#6c8ebf;" edge="1" parent="iAt2AsufF3LarDBHJFdH-83">
          <mxGeometry width="50" height="50" relative="1" as="geometry">
            <mxPoint x="10" y="20" as="sourcePoint" />
            <mxPoint x="10" y="20" as="targetPoint" />
            <Array as="points">
              <mxPoint x="40" y="20" />
              <mxPoint x="50" y="10" />
              <mxPoint x="40" />
              <mxPoint />
              <mxPoint y="20" />
            </Array>
          </mxGeometry>
        </mxCell>
        <mxCell id="iAt2AsufF3LarDBHJFdH-87" value="" style="group" vertex="1" connectable="0" parent="1">
          <mxGeometry x="430" y="640" width="50" height="20" as="geometry" />
        </mxCell>
        <mxCell id="iAt2AsufF3LarDBHJFdH-88" value="" style="triangle;whiteSpace=wrap;html=1;strokeColor=none;container=0;fillColor=#dae8fc;" vertex="1" parent="iAt2AsufF3LarDBHJFdH-87">
          <mxGeometry x="40" width="10" height="20" as="geometry" />
        </mxCell>
        <mxCell id="iAt2AsufF3LarDBHJFdH-89" value="y" style="rounded=0;whiteSpace=wrap;html=1;strokeColor=none;container=0;fillColor=#dae8fc;glass=0;" vertex="1" parent="iAt2AsufF3LarDBHJFdH-87">
          <mxGeometry width="40" height="20" as="geometry" />
        </mxCell>
        <mxCell id="iAt2AsufF3LarDBHJFdH-90" value="" style="endArrow=none;html=1;rounded=0;fillColor=#dae8fc;strokeColor=#6c8ebf;" edge="1" parent="iAt2AsufF3LarDBHJFdH-87">
          <mxGeometry width="50" height="50" relative="1" as="geometry">
            <mxPoint x="10" y="20" as="sourcePoint" />
            <mxPoint x="10" y="20" as="targetPoint" />
            <Array as="points">
              <mxPoint x="40" y="20" />
              <mxPoint x="50" y="10" />
              <mxPoint x="40" />
              <mxPoint />
              <mxPoint y="20" />
            </Array>
          </mxGeometry>
        </mxCell>
        <mxCell id="iAt2AsufF3LarDBHJFdH-91" value="" style="group" vertex="1" connectable="0" parent="1">
          <mxGeometry x="160" y="710" width="50" height="20" as="geometry" />
        </mxCell>
        <mxCell id="iAt2AsufF3LarDBHJFdH-92" value="" style="triangle;whiteSpace=wrap;html=1;strokeColor=none;container=0;fillColor=#d5e8d4;" vertex="1" parent="iAt2AsufF3LarDBHJFdH-91">
          <mxGeometry x="40" width="10" height="20" as="geometry" />
        </mxCell>
        <mxCell id="iAt2AsufF3LarDBHJFdH-93" value="start" style="rounded=0;whiteSpace=wrap;html=1;strokeColor=none;container=0;fillColor=#d5e8d4;glass=0;" vertex="1" parent="iAt2AsufF3LarDBHJFdH-91">
          <mxGeometry width="40" height="20" as="geometry" />
        </mxCell>
        <mxCell id="iAt2AsufF3LarDBHJFdH-94" value="" style="endArrow=none;html=1;rounded=0;fillColor=#d5e8d4;strokeColor=#82b366;" edge="1" parent="iAt2AsufF3LarDBHJFdH-91">
          <mxGeometry width="50" height="50" relative="1" as="geometry">
            <mxPoint x="10" y="20" as="sourcePoint" />
            <mxPoint x="10" y="20" as="targetPoint" />
            <Array as="points">
              <mxPoint x="40" y="20" />
              <mxPoint x="50" y="10" />
              <mxPoint x="40" />
              <mxPoint />
              <mxPoint y="20" />
            </Array>
          </mxGeometry>
        </mxCell>
        <mxCell id="iAt2AsufF3LarDBHJFdH-95" value="" style="endArrow=none;html=1;rounded=0;entryX=0;entryY=1;entryDx=0;entryDy=0;fillColor=#f5f5f5;strokeColor=#666666;" edge="1" parent="1" target="iAt2AsufF3LarDBHJFdH-32">
          <mxGeometry width="50" height="50" relative="1" as="geometry">
            <mxPoint x="220" y="720" as="sourcePoint" />
            <mxPoint x="290" y="730" as="targetPoint" />
            <Array as="points">
              <mxPoint x="220" y="590" />
            </Array>
          </mxGeometry>
        </mxCell>
      </root>
    </mxGraphModel>
  </diagram>
</mxfile>
